<?xml version="1.0" standalone="no"?>
<!DOCTYPE svg PUBLIC "-//W3C//DTD SVG 20010904//EN"
 "http://www.w3.org/TR/2001/REC-SVG-20010904/DTD/svg10.dtd">
<svg version="1.0" xmlns="http://www.w3.org/2000/svg"
 width="512.000000pt" height="512.000000pt" viewBox="0 0 512.000000 512.000000"
 preserveAspectRatio="xMidYMid meet">
<metadata>
Created by potrace 1.14, written by Peter Selinger 2001-2017
</metadata>
<g transform="translate(0.000000,512.000000) scale(0.100000,-0.100000)"
fill="#000000" stroke="none">
<path d="M3986 3656 c152 -231 241 -472 275 -750 16 -135 6 -410 -20 -540
-152 -749 -724 -1325 -1470 -1483 -115 -25 -147 -27 -351 -27 -177 -1 -244 3
-315 17 -227 45 -459 139 -639 260 -55 37 -101 67 -104 67 -11 0 104 -89 197
-151 187 -126 402 -216 640 -267 117 -24 144 -26 361 -26 217 0 244 2 361 26
725 156 1261 692 1417 1417 24 117 26 144 26 361 0 217 -2 244 -26 361 -34
154 -84 302 -149 435 -56 115 -167 287 -228 354 -35 39 -32 31 25 -54z"/>
<path d="M2375 3309 c-60 -4 -150 -14 -200 -23 -49 -9 -93 -16 -97 -16 -5 0
-8 -324 -8 -720 l0 -720 117 0 116 0 -7 649 -7 650 38 7 c21 5 85 8 143 9 93
0 111 -3 160 -26 118 -55 174 -135 173 -245 -1 -136 -100 -239 -254 -263 -41
-7 -78 -20 -103 -38 -41 -30 -86 -96 -73 -110 5 -4 55 -9 112 -11 l105 -4 45
-40 c59 -52 96 -131 145 -313 22 -82 50 -176 61 -207 l21 -58 118 0 118 0 -23
58 c-13 31 -44 129 -69 217 -56 194 -110 310 -168 359 -23 20 -48 36 -57 36
-8 0 9 12 38 27 71 35 152 117 187 189 26 53 29 69 29 159 0 92 -3 105 -32
168 -75 157 -243 257 -453 269 -36 2 -114 1 -175 -3z"/>
</g>
</svg>
